<svg width="32" height="31" viewBox="0 0 32 31" fill="none" xmlns="http://www.w3.org/2000/svg">
<path d="M16.9884 27.0784C15.8662 27.0784 14.7414 27.129 13.6238 27.0633C12.6166 27.0043 12.2332 26.4666 12.2221 25.3645C12.1509 18.4348 11.5225 11.5615 9.82159 4.81882C9.51198 3.59132 9.15926 2.37368 8.83462 1.14947C8.81633 1.08383 8.87055 0.995867 8.84703 1.08383L15.2392 0.321732C14.7244 4.78534 14.198 9.33756 13.6761 13.8891C13.3874 16.4071 13.1028 18.9253 12.8224 21.4438C12.757 22.0542 12.6669 22.6654 12.6506 23.2771C12.6016 25.1729 13.6878 26.3728 15.5573 26.5323C16.0276 26.573 16.4985 26.617 16.9688 26.6596L16.9884 27.0784Z" fill="white"/>
<path d="M10.8909 24.823C8.17824 18.4505 5.00439 12.5514 0.929787 7.17796L4.75618 5.71153C6.80262 8.5177 11.2032 22.0017 10.8909 24.823Z" fill="white"/>
<path d="M5.22704 3.99698L8.70724 3.32547C10.3846 9.25747 11.1384 15.3201 11.4506 21.2455C9.41138 15.6004 7.31268 9.78063 5.22704 3.99698Z" fill="white"/>
<path d="M17.2942 28.854C15.2399 30.4143 13.1791 30.6139 12.844 29.4087L17.2942 28.854Z" fill="white"/>
<path d="M16.0321 28.0217C14.8812 28.4812 13.7199 28.8632 12.6689 27.8149L16.0321 28.0217Z" fill="white"/>
<path d="M29.9588 1.43303C29.0796 1.28927 28.1952 1.17834 27.3069 1.09169C24.1513 0.783179 20.997 0.453003 17.8356 0.211443C16.6109 0.117576 15.8479 0.850132 15.7062 2.07369C14.8919 9.09599 14.0876 16.1196 13.2933 23.1445C13.1392 24.5066 13.9249 25.5733 15.298 25.7439C19.0492 26.2119 22.8096 26.617 26.1122 26.995C28.625 27.0961 29.1822 26.6386 29.4924 24.6162C29.5356 24.3333 29.5578 24.0464 29.5872 23.7629C30.2917 17.13 31 10.4976 31.712 3.86569C31.8622 2.47672 31.3188 1.65621 29.9588 1.43303ZM27.4114 24.8355C23.5569 24.4114 19.8827 23.9972 16.2085 23.6086C15.4599 23.5292 15.394 23.0907 15.4652 22.4927C15.8789 19.0006 16.2878 15.508 16.6919 12.0151C17.0067 9.29619 17.3117 6.57602 17.6325 3.85782C17.6841 3.42261 17.7977 2.99463 17.8983 2.48526L29.7485 3.86372C28.9607 10.9156 28.19 17.8374 27.4101 24.8355H27.4114Z" fill="white"/>
<path d="M19.5084 13.4126L19.5738 12.7969C19.6356 12.1864 19.827 11.7346 20.1479 11.4414C20.4688 11.1482 20.896 11.0298 21.4295 11.0862C21.9625 11.1414 22.3509 11.3462 22.5948 11.7006C22.8386 12.0551 22.9294 12.5391 22.8671 13.1526L22.5321 16.438L21.4785 16.3297L21.8168 13.0089C21.8512 12.6689 21.8273 12.415 21.745 12.2474C21.7049 12.1654 21.6435 12.0957 21.5673 12.0459C21.491 11.9961 21.4028 11.968 21.3119 11.9645C21.2244 11.9507 21.1348 11.9614 21.0529 11.9953C20.971 12.0292 20.8999 12.0851 20.8475 12.1569C20.7351 12.3052 20.6615 12.5507 20.6267 12.8933L20.2883 16.2063L19.2347 16.0973L19.4268 14.2134L18.9918 14.1688C18.9333 14.3341 18.8173 14.4726 18.6652 14.5587C18.4994 14.6492 18.3093 14.6841 18.1224 14.6584L17.9519 14.6407L18.3392 13.2924L19.5084 13.4126Z" fill="white"/>
<path d="M25.3878 16.7314C24.9288 16.6841 24.5765 16.5889 24.3309 16.4458C24.0922 16.3113 23.9116 16.0927 23.8241 15.8321C23.7322 15.5665 23.7089 15.2098 23.7542 14.7621L23.7966 14.346C23.8689 13.6305 23.9996 13.0693 24.1885 12.6623C24.3775 12.2553 24.6377 11.9724 24.9691 11.8135C25.3014 11.6547 25.7551 11.605 26.3304 11.6645L27.2873 11.763L27.3938 13.1618L27.2233 13.1441C27.0362 13.1305 26.8584 13.0571 26.7157 12.9347C26.5834 12.8201 26.4966 12.6614 26.4714 12.4877C26.0913 12.4483 25.7982 12.4794 25.5923 12.5809C25.3863 12.6824 25.2265 12.8701 25.1128 13.1441C24.9992 13.4193 24.9121 13.8539 24.8515 14.4477L24.8019 14.9335C24.7679 15.2691 24.803 15.5122 24.9071 15.6627C25.0111 15.8133 25.2036 15.9032 25.4845 15.9325L26.1697 16.0028C26.235 15.8704 26.346 15.7663 26.4819 15.71C26.6336 15.6355 26.8031 15.6052 26.9711 15.6227L27.1416 15.6404L26.8627 16.4773L26.9666 17.3569L26.7961 17.3392C26.6269 17.3229 26.4658 17.2584 26.3317 17.1535C26.2112 17.0701 26.1247 16.9459 26.088 16.8036L25.3878 16.7314Z" fill="white"/>
</svg>
